<svg xmlns="http://www.w3.org/2000/svg" version="1.1" xmlns:xlink="http://www.w3.org/1999/xlink" width="1000" height="1000"><style>
    #light-icon {
      display: inline;
    }
    #dark-icon {
      display: none;
    }

    @media (prefers-color-scheme: dark) {
      #light-icon {
        display: none;
      }
      #dark-icon {
        display: inline;
      }
    }
  </style><g id="light-icon"><svg xmlns="http://www.w3.org/2000/svg" version="1.1" xmlns:xlink="http://www.w3.org/1999/xlink" width="1000" height="1000"><g><g transform="matrix(1.7421602787456445,0,0,1.7421602787456445,0.8710801393728502,5.684341886080802e-14)"><svg xmlns="http://www.w3.org/2000/svg" version="1.1" xmlns:xlink="http://www.w3.org/1999/xlink" width="573" height="574"><svg viewBox="0 0 573 574" fill="none" xmlns="http://www.w3.org/2000/svg">
                <path d="M389.5 37V172H536.5V537H37V37H389.5Z" fill="none"></path>
                <path d="M353 172C377.333 172 401.667 172 426 172C426 170.959 426 169.754 426 168.616C426 136.457 426 104.205 426 72.043C426 60.3533 426 48.5679 426 37V0.5H389.5C272 0.5 154.5 0.5 37 0.5H0.5V37C0.5 203.667 0.5 370.333 0.5 537V573.5H37C203.5 573.5 370 573.5 536.5 573.5H573V537C573 415.476 573 293.607 573 172V135.5H536.5C520.817 135.5 505.133 135.5 489.45 135.5C457.172 135.5 424.894 135.5 392.616 135.5C391.577 135.5 390.539 135.5 389.5 135.5C389.5 159.833 389.5 184.167 389.5 208.5C390.539 208.5 391.577 208.5 392.616 208.5C424.894 208.5 457.172 208.5 489.45 208.5C505.133 208.5 520.817 208.5 536.5 208.5L500 172C500 293.607 500 415.476 500 537L536.5 500.5C370 500.5 203.5 500.5 37 500.5L73.5 537C73.5 370.333 73.5 203.667 73.5 37L37 73.5C154.5 73.5 272 73.5 389.5 73.5L353 37C353 48.5679 353 60.3533 353 72.043C353 104.205 353 136.457 353 168.616C353 169.754 353 170.959 353 172ZM426 172H353V208.5H389.5V135.5L426 172Z" fill="#000000"></path>
                <path d="M144.75 435V137.5H224L364.5 337.75H352.75V137.5H427.5V435H348.25L207.75 234.75H219.5V435H144.75Z" fill="#000000"></path>
            </svg></svg></g></g></svg></g><g id="dark-icon"><svg xmlns="http://www.w3.org/2000/svg" version="1.1" xmlns:xlink="http://www.w3.org/1999/xlink" width="1000" height="1000"><g><g transform="matrix(1.7421602787456445,0,0,1.7421602787456445,0.8710801393728502,5.684341886080802e-14)"><svg xmlns="http://www.w3.org/2000/svg" version="1.1" xmlns:xlink="http://www.w3.org/1999/xlink" width="573" height="574"><svg viewBox="0 0 573 574" fill="none" xmlns="http://www.w3.org/2000/svg">
    <path d="M353 172C377.333 172 401.667 172 426 172C426 170.959 426 169.754 426 168.616C426 136.457 426 104.205 426 72.043C426 60.3533 426 48.5679 426 37V0.5H389.5C272 0.5 154.5 0.5 37 0.5H0.5V37C0.5 203.667 0.5 370.333 0.5 537V573.5H37C203.5 573.5 370 573.5 536.5 573.5H573V537C573 415.476 573 293.607 573 172V135.5H536.5C520.817 135.5 505.133 135.5 489.45 135.5C457.172 135.5 424.894 135.5 392.616 135.5C391.577 135.5 390.539 135.5 389.5 135.5C389.5 159.833 389.5 184.167 389.5 208.5C390.539 208.5 391.577 208.5 392.616 208.5C424.894 208.5 457.172 208.5 489.45 208.5C505.133 208.5 520.817 208.5 536.5 208.5L500 172C500 293.607 500 415.476 500 537L536.5 500.5C370 500.5 203.5 500.5 37 500.5L73.5 537C73.5 370.333 73.5 203.667 73.5 37L37 73.5C154.5 73.5 272 73.5 389.5 73.5L353 37C353 48.5679 353 60.3533 353 72.043C353 104.205 353 136.457 353 168.616C353 169.754 353 170.959 353 172ZM426 172H353V208.5H389.5V135.5L426 172Z" fill="white"></path>
    <path d="M144.75 435V137.5H224L364.5 337.75H352.75V137.5H427.5V435H348.25L207.75 234.75H219.5V435H144.75Z" fill="white"></path>
</svg></svg></g></g></svg></g></svg>