<svg width="16" height="14" viewBox="0 0 16 14" fill="none" xmlns="http://www.w3.org/2000/svg">
<path d="M1 6.06459C0.483385 6.06459 0.0645856 6.48338 0.0645856 7C0.0645856 7.51662 0.483385 7.93541 1 7.93541L1 6.06459ZM15.6614 7.66144C16.0267 7.29614 16.0267 6.70386 15.6614 6.33856L9.7085 0.385622C9.3432 0.0203195 8.75092 0.0203195 8.38562 0.385622C8.02032 0.750924 8.02032 1.3432 8.38562 1.7085L13.6771 7L8.38562 12.2915C8.02032 12.6568 8.02032 13.2491 8.38562 13.6144C8.75092 13.9797 9.3432 13.9797 9.7085 13.6144L15.6614 7.66144ZM1 7L1 7.93541L15 7.93541V7V6.06459L1 6.06459V7Z" fill="#83FFC7"/>
</svg>
