<svg width="208" height="217" viewBox="0 0 208 217" fill="none" xmlns="http://www.w3.org/2000/svg">
<path d="M25.8881 10H39.3881C39.2881 10.9667 39.1881 11.95 39.0881 12.95C39.0214 13.9167 38.9881 14.9 38.9881 15.9L39.0381 48.7H24.1881V40.75L24.6381 34.55H24.1881C24.1548 35.6833 23.9048 36.8167 23.4381 37.95C23.0048 39.05 22.2381 39.9667 21.1381 40.7C20.0714 41.4 18.5714 41.75 16.6381 41.75C14.2381 41.75 12.3214 41.2667 10.8881 40.3C9.48809 39.3333 8.43809 38.05 7.73809 36.45C7.03809 34.85 6.58809 33.0833 6.38809 31.15C6.18809 29.2167 6.08809 27.2833 6.08809 25.35C6.08809 23.15 6.22142 21.0833 6.48809 19.15C6.75475 17.1833 7.27142 15.4667 8.03809 14C8.80475 12.5 9.95475 11.3333 11.4881 10.5C13.0548 9.63333 15.1048 9.2 17.6381 9.2C19.4048 9.2 20.8214 9.46667 21.8881 10C22.9881 10.5 23.8381 11.15 24.4381 11.95C25.0381 12.75 25.4548 13.5833 25.6881 14.45C25.6881 13.6833 25.7048 12.9333 25.7381 12.2C25.7714 11.4667 25.8214 10.7333 25.8881 10ZM23.4881 28.95V22.2C23.4881 22.0667 23.4214 21.8167 23.2881 21.45C23.1881 21.05 22.8048 20.85 22.1381 20.85C21.4714 20.85 21.0714 21.05 20.9381 21.45C20.8381 21.8167 20.7881 22.0667 20.7881 22.2V28.95C20.7881 29.05 20.8381 29.3 20.9381 29.7C21.0714 30.1 21.4714 30.3 22.1381 30.3C22.8048 30.3 23.1881 30.1 23.2881 29.7C23.4214 29.3 23.4881 29.05 23.4881 28.95ZM73.5537 41H60.8037C60.5704 40 60.387 38.9333 60.2537 37.8C60.1537 36.6667 60.1037 35.55 60.1037 34.45H59.6537C59.6537 35.7167 59.387 36.9167 58.8537 38.05C58.3537 39.15 57.5204 40.05 56.3537 40.75C55.2204 41.4167 53.6704 41.75 51.7037 41.75C49.2037 41.75 47.2204 41.4333 45.7537 40.8C44.3204 40.1667 43.2537 39.3 42.5537 38.2C41.887 37.1 41.4537 35.8167 41.2537 34.35C41.0537 32.8833 40.937 31.3167 40.9037 29.65V10H55.5537V28.5C55.5537 28.6 55.6037 28.85 55.7037 29.25C55.837 29.65 56.237 29.85 56.9037 29.85C57.5704 29.85 57.9537 29.65 58.0537 29.25C58.187 28.85 58.2537 28.6 58.2537 28.5V10H73.0537V30.1C73.0537 30.4667 73.0537 31.1667 73.0537 32.2C73.087 33.2 73.1204 34.3167 73.1537 35.55C73.187 36.7833 73.237 37.9167 73.3037 38.95C73.3704 39.95 73.4537 40.6333 73.5537 41ZM105.538 41H92.7381C92.6048 40.3667 92.4881 39.7167 92.3881 39.05C92.3214 38.35 92.2881 37.5167 92.2881 36.55H91.8381C91.8381 37.25 91.5881 38.0167 91.0881 38.85C90.6214 39.65 89.8548 40.35 88.7881 40.95C87.7214 41.5167 86.2881 41.8 84.4881 41.8C82.0214 41.8 80.0714 41.3833 78.6381 40.55C77.2048 39.7167 76.1881 38.65 75.5881 37.35C74.9881 36.0167 74.6881 34.5833 74.6881 33.05V30.65C74.6881 27.45 75.6881 25.1167 77.6881 23.65C79.6881 22.1833 83.0714 21.45 87.8381 21.45C88.5048 21.45 89.1714 21.4667 89.8381 21.5C90.5381 21.5333 91.2714 21.5833 92.0381 21.65C92.1048 21.0833 92.0048 20.6667 91.7381 20.4C91.5048 20.1333 91.2048 19.9833 90.8381 19.95C90.2048 19.8833 89.5881 19.8333 88.9881 19.8C88.4214 19.7333 87.8548 19.7 87.2881 19.7C84.6214 19.7 82.3714 20.0167 80.5381 20.65C78.7381 21.2833 77.3214 21.9 76.2881 22.5L75.3881 11.7C78.3214 10.8333 81.0548 10.2 83.5881 9.8C86.1548 9.4 88.5048 9.2 90.6381 9.2C95.2381 9.2 98.7881 10.1333 101.288 12C103.821 13.8333 105.088 16.5167 105.088 20.05V35.2C105.188 37.1667 105.338 39.1 105.538 41ZM91.0381 31.6V28.45C91.0381 28.3167 90.9714 28.0667 90.8381 27.7C90.7381 27.3 90.3548 27.1 89.6881 27.1C89.0214 27.1 88.6214 27.3 88.4881 27.7C88.3881 28.0667 88.3381 28.3167 88.3381 28.45V31.6C88.3381 31.7 88.3881 31.95 88.4881 32.35C88.6214 32.75 89.0214 32.95 89.6881 32.95C90.3548 32.95 90.7381 32.75 90.8381 32.35C90.9714 31.95 91.0381 31.7 91.0381 31.6ZM124.272 32.05L125.072 40.8C124.038 41.0333 122.805 41.2 121.372 41.3C119.972 41.4333 118.638 41.5 117.372 41.5C115.305 41.5 113.488 41.1667 111.922 40.5C110.388 39.8 109.188 38.5333 108.322 36.7C107.488 34.8667 107.072 32.2167 107.072 28.75V0.799999H121.472V29.95C121.472 30.8833 121.722 31.5 122.222 31.8C122.755 32.1 123.438 32.1833 124.272 32.05ZM126.506 8.65V0.799999H140.906V8.65H126.506ZM140.906 41H126.506V10H140.906V41ZM163.257 28.95L164.307 41.1C163.107 41.3333 161.94 41.5 160.807 41.6C159.674 41.7333 158.59 41.8 157.557 41.8C155.19 41.8 153.09 41.45 151.257 40.75C149.424 40.0167 147.99 38.7333 146.957 36.9C145.924 35.0333 145.407 32.4167 145.407 29.05V20.8H142.707V10H145.507L146.307 5.95L159.807 4.6V10H163.407V20.8H159.807V25.8C159.807 27.0333 160.04 27.8833 160.507 28.35C160.974 28.7833 161.624 29 162.457 29C162.557 29 162.674 29 162.807 29C162.974 29 163.124 28.9833 163.257 28.95Z" fill="#83FFC7"/>
<path d="M182.112 207L168.612 207C168.712 206.033 168.812 205.05 168.912 204.05C168.979 203.083 169.012 202.1 169.012 201.1L168.962 168.3L183.812 168.3L183.812 176.25L183.362 182.45L183.812 182.45C183.845 181.317 184.095 180.183 184.562 179.05C184.995 177.95 185.762 177.033 186.862 176.3C187.929 175.6 189.429 175.25 191.362 175.25C193.762 175.25 195.679 175.733 197.112 176.7C198.512 177.667 199.562 178.95 200.262 180.55C200.962 182.15 201.412 183.917 201.612 185.85C201.812 187.783 201.912 189.717 201.912 191.65C201.912 193.85 201.779 195.917 201.512 197.85C201.245 199.817 200.729 201.533 199.962 203C199.195 204.5 198.045 205.667 196.512 206.5C194.945 207.367 192.895 207.8 190.362 207.8C188.595 207.8 187.179 207.533 186.112 207C185.012 206.5 184.162 205.85 183.562 205.05C182.962 204.25 182.545 203.417 182.312 202.55C182.312 203.317 182.295 204.067 182.262 204.8C182.229 205.533 182.179 206.267 182.112 207ZM184.512 188.05L184.512 194.8C184.512 194.933 184.579 195.183 184.712 195.55C184.812 195.95 185.195 196.15 185.862 196.15C186.529 196.15 186.929 195.95 187.062 195.55C187.162 195.183 187.212 194.933 187.212 194.8L187.212 188.05C187.212 187.95 187.162 187.7 187.062 187.3C186.929 186.9 186.529 186.7 185.862 186.7C185.195 186.7 184.812 186.9 184.712 187.3C184.579 187.7 184.512 187.95 184.512 188.05ZM134.446 176L147.196 176C147.43 177 147.613 178.067 147.746 179.2C147.846 180.333 147.896 181.45 147.896 182.55L148.346 182.55C148.346 181.283 148.613 180.083 149.146 178.95C149.646 177.85 150.48 176.95 151.646 176.25C152.78 175.583 154.33 175.25 156.296 175.25C158.796 175.25 160.78 175.567 162.246 176.2C163.68 176.833 164.746 177.7 165.446 178.8C166.113 179.9 166.546 181.183 166.746 182.65C166.946 184.117 167.063 185.683 167.096 187.35L167.096 207L152.446 207L152.446 188.5C152.446 188.4 152.396 188.15 152.296 187.75C152.163 187.35 151.763 187.15 151.096 187.15C150.43 187.15 150.046 187.35 149.946 187.75C149.813 188.15 149.746 188.4 149.746 188.5L149.746 207L134.946 207L134.946 186.9C134.946 186.533 134.946 185.833 134.946 184.8C134.913 183.8 134.88 182.683 134.846 181.45C134.813 180.217 134.763 179.083 134.696 178.05C134.63 177.05 134.546 176.367 134.446 176ZM102.462 176L115.262 176C115.395 176.633 115.512 177.283 115.612 177.95C115.679 178.65 115.712 179.483 115.712 180.45L116.162 180.45C116.162 179.75 116.412 178.983 116.912 178.15C117.379 177.35 118.145 176.65 119.212 176.05C120.279 175.483 121.712 175.2 123.512 175.2C125.979 175.2 127.929 175.617 129.362 176.45C130.795 177.283 131.812 178.35 132.412 179.65C133.012 180.983 133.312 182.417 133.312 183.95L133.312 186.35C133.312 189.55 132.312 191.883 130.312 193.35C128.312 194.817 124.929 195.55 120.162 195.55C119.495 195.55 118.829 195.533 118.162 195.5C117.462 195.467 116.729 195.417 115.962 195.35C115.895 195.917 115.995 196.333 116.262 196.6C116.495 196.867 116.795 197.017 117.162 197.05C117.795 197.117 118.412 197.167 119.012 197.2C119.579 197.267 120.145 197.3 120.712 197.3C123.379 197.3 125.629 196.983 127.462 196.35C129.262 195.717 130.679 195.1 131.712 194.5L132.612 205.3C129.679 206.167 126.945 206.8 124.412 207.2C121.845 207.6 119.495 207.8 117.362 207.8C112.762 207.8 109.212 206.867 106.712 205C104.179 203.167 102.912 200.483 102.912 196.95L102.912 181.8C102.812 179.833 102.662 177.9 102.462 176ZM116.962 185.4L116.962 188.55C116.962 188.683 117.029 188.933 117.162 189.3C117.262 189.7 117.645 189.9 118.312 189.9C118.979 189.9 119.379 189.7 119.512 189.3C119.612 188.933 119.662 188.683 119.662 188.55L119.662 185.4C119.662 185.3 119.612 185.05 119.512 184.65C119.379 184.25 118.979 184.05 118.312 184.05C117.645 184.05 117.262 184.25 117.162 184.65C117.029 185.05 116.962 185.3 116.962 185.4ZM83.7283 184.95L82.9283 176.2C83.9617 175.967 85.195 175.8 86.6283 175.7C88.0283 175.567 89.3617 175.5 90.6283 175.5C92.695 175.5 94.5117 175.833 96.0783 176.5C97.6117 177.2 98.8117 178.467 99.6783 180.3C100.512 182.133 100.928 184.783 100.928 188.25L100.928 216.2L86.5283 216.2L86.5283 187.05C86.5283 186.117 86.2783 185.5 85.7783 185.2C85.245 184.9 84.5617 184.817 83.7283 184.95ZM81.4936 208.35L81.4936 216.2L67.0936 216.2L67.0936 208.35L81.4936 208.35ZM67.0936 176L81.4936 176L81.4936 207L67.0936 207L67.0936 176ZM44.7432 188.05L43.6932 175.9C44.8932 175.667 46.0598 175.5 47.1932 175.4C48.3265 175.267 49.4098 175.2 50.4432 175.2C52.8098 175.2 54.9098 175.55 56.7432 176.25C58.5765 176.983 60.0098 178.267 61.0432 180.1C62.0765 181.967 62.5932 184.583 62.5932 187.95L62.5932 196.2L65.2932 196.2L65.2932 207L62.4932 207L61.6932 211.05L48.1932 212.4L48.1932 207L44.5932 207L44.5932 196.2L48.1932 196.2L48.1932 191.2C48.1932 189.967 47.9598 189.117 47.4932 188.65C47.0265 188.217 46.3765 188 45.5432 188C45.4432 188 45.3265 188 45.1932 188C45.0265 188 44.8765 188.017 44.7432 188.05Z" fill="white"/>
<path d="M8 83.7637L8 71.0137C9 70.7803 10.0667 70.597 11.2 70.4637C12.3333 70.3637 13.45 70.3137 14.55 70.3137L14.55 69.8637C13.2833 69.8637 12.0833 69.597 10.95 69.0637C9.85 68.5637 8.95 67.7303 8.25 66.5637C7.58333 65.4303 7.25 63.8803 7.25 61.9137C7.25 59.4137 7.56667 57.4303 8.2 55.9637C8.83333 54.5303 9.7 53.4637 10.8 52.7637C11.9 52.097 13.1833 51.6637 14.65 51.4637C16.1167 51.2637 17.6833 51.147 19.35 51.1137L39 51.1137L39 65.7637L20.5 65.7637C20.4 65.7637 20.15 65.8137 19.75 65.9137C19.35 66.047 19.15 66.447 19.15 67.1137C19.15 67.7803 19.35 68.1637 19.75 68.2637C20.15 68.397 20.4 68.4637 20.5 68.4637L39 68.4637L39 83.2637L18.9 83.2637C18.5333 83.2637 17.8333 83.2637 16.8 83.2637C15.8 83.297 14.6833 83.3303 13.45 83.3637C12.2167 83.397 11.0833 83.447 10.05 83.5137C9.05 83.5803 8.36667 83.6637 8 83.7637ZM8 115.748L8 102.948C8.63333 102.815 9.28333 102.698 9.95 102.598C10.65 102.531 11.4833 102.498 12.45 102.498L12.45 102.048C11.75 102.048 10.9833 101.798 10.15 101.298C9.35 100.831 8.65 100.065 8.05 98.998C7.48333 97.9314 7.2 96.498 7.2 94.698C7.2 92.2314 7.61666 90.2814 8.45 88.848C9.28333 87.4147 10.35 86.398 11.65 85.798C12.9833 85.198 14.4167 84.898 15.95 84.898L18.35 84.898C21.55 84.898 23.8833 85.898 25.35 87.898C26.8167 89.898 27.55 93.2814 27.55 98.048C27.55 98.7147 27.5333 99.3814 27.5 100.048C27.4667 100.748 27.4167 101.481 27.35 102.248C27.9167 102.315 28.3333 102.215 28.6 101.948C28.8667 101.715 29.0167 101.415 29.05 101.048C29.1167 100.415 29.1667 99.798 29.2 99.198C29.2667 98.6314 29.3 98.0647 29.3 97.498C29.3 94.8314 28.9833 92.5814 28.35 90.748C27.7167 88.948 27.1 87.5314 26.5 86.498L37.3 85.598C38.1667 88.5314 38.8 91.2647 39.2 93.798C39.6 96.3647 39.8 98.7147 39.8 100.848C39.8 105.448 38.8667 108.998 37 111.498C35.1667 114.031 32.4833 115.298 28.95 115.298L13.8 115.298C11.8333 115.398 9.9 115.548 8 115.748ZM17.4 101.248L20.55 101.248C20.6833 101.248 20.9333 101.181 21.3 101.048C21.7 100.948 21.9 100.565 21.9 99.898C21.9 99.2314 21.7 98.8314 21.3 98.698C20.9333 98.598 20.6833 98.548 20.55 98.548L17.4 98.548C17.3 98.548 17.05 98.598 16.65 98.698C16.25 98.8314 16.05 99.2314 16.05 99.898C16.05 100.565 16.25 100.948 16.65 101.048C17.05 101.181 17.3 101.248 17.4 101.248ZM16.95 134.482L8.2 135.282C7.96666 134.248 7.8 133.015 7.7 131.582C7.56666 130.182 7.5 128.848 7.5 127.582C7.5 125.515 7.83333 123.698 8.5 122.132C9.2 120.598 10.4667 119.398 12.3 118.532C14.1333 117.698 16.7833 117.282 20.25 117.282L48.2 117.282L48.2 131.682L19.05 131.682C18.1167 131.682 17.5 131.932 17.2 132.432C16.9 132.965 16.8167 133.648 16.95 134.482ZM40.35 136.716L48.2 136.716L48.2 151.116L40.35 151.116L40.35 136.716ZM8 151.116L8 136.716L39 136.716L39 151.116L8 151.116ZM20.05 173.467L7.89999 174.517C7.66666 173.317 7.49999 172.15 7.39999 171.017C7.26666 169.883 7.19999 168.8 7.19999 167.767C7.19999 165.4 7.55 163.3 8.25 161.467C8.98333 159.633 10.2667 158.2 12.1 157.167C13.9667 156.133 16.5833 155.617 19.95 155.617L28.2 155.617L28.2 152.917L39 152.917L39 155.717L43.05 156.517L44.4 170.017L39 170.017L39 173.617L28.2 173.617L28.2 170.017L23.2 170.017C21.9667 170.017 21.1167 170.25 20.65 170.717C20.2167 171.183 20 171.833 20 172.667C20 172.767 20 172.883 20 173.017C20 173.183 20.0167 173.333 20.05 173.467ZM0.299993 197.384L0.299994 178.934L12.7 184.084L39 174.684L39 190.884L21.95 192.234L21.95 193.084L39 193.134L39 209.334L0.299993 197.384Z" fill="white"/>
<path d="M200 132.236L200 144.986C199 145.22 197.933 145.403 196.8 145.536C195.667 145.636 194.55 145.686 193.45 145.686L193.45 146.136C194.717 146.136 195.917 146.403 197.05 146.936C198.15 147.436 199.05 148.27 199.75 149.436C200.417 150.57 200.75 152.12 200.75 154.086C200.75 156.586 200.433 158.57 199.8 160.036C199.167 161.47 198.3 162.536 197.2 163.236C196.1 163.903 194.817 164.336 193.35 164.536C191.883 164.736 190.317 164.853 188.65 164.886L169 164.886L169 150.236L187.5 150.236C187.6 150.236 187.85 150.186 188.25 150.086C188.65 149.953 188.85 149.553 188.85 148.886C188.85 148.22 188.65 147.836 188.25 147.736C187.85 147.603 187.6 147.536 187.5 147.536L169 147.536L169 132.736L189.1 132.736C189.467 132.736 190.167 132.736 191.2 132.736C192.2 132.703 193.317 132.67 194.55 132.636C195.783 132.603 196.917 132.553 197.95 132.486C198.95 132.42 199.633 132.336 200 132.236ZM200 100.252L200 113.052C199.367 113.185 198.717 113.302 198.05 113.402C197.35 113.469 196.517 113.502 195.55 113.502L195.55 113.952C196.25 113.952 197.017 114.202 197.85 114.702C198.65 115.169 199.35 115.935 199.95 117.002C200.517 118.069 200.8 119.502 200.8 121.302C200.8 123.769 200.383 125.719 199.55 127.152C198.717 128.585 197.65 129.602 196.35 130.202C195.017 130.802 193.583 131.102 192.05 131.102L189.65 131.102C186.45 131.102 184.117 130.102 182.65 128.102C181.183 126.102 180.45 122.719 180.45 117.952C180.45 117.285 180.467 116.619 180.5 115.952C180.533 115.252 180.583 114.519 180.65 113.752C180.083 113.685 179.667 113.785 179.4 114.052C179.133 114.285 178.983 114.585 178.95 114.952C178.883 115.585 178.833 116.202 178.8 116.802C178.733 117.369 178.7 117.935 178.7 118.502C178.7 121.169 179.017 123.419 179.65 125.252C180.283 127.052 180.9 128.469 181.5 129.502L170.7 130.402C169.833 127.469 169.2 124.735 168.8 122.202C168.4 119.635 168.2 117.285 168.2 115.152C168.2 110.552 169.133 107.002 171 104.502C172.833 101.969 175.517 100.702 179.05 100.702L194.2 100.702C196.167 100.602 198.1 100.452 200 100.252ZM190.6 114.752L187.45 114.752C187.317 114.752 187.067 114.819 186.7 114.952C186.3 115.052 186.1 115.435 186.1 116.102C186.1 116.769 186.3 117.169 186.7 117.302C187.067 117.402 187.317 117.452 187.45 117.452L190.6 117.452C190.7 117.452 190.95 117.402 191.35 117.302C191.75 117.169 191.95 116.769 191.95 116.102C191.95 115.435 191.75 115.052 191.35 114.952C190.95 114.819 190.7 114.752 190.6 114.752ZM191.05 81.5184L199.8 80.7184C200.033 81.7517 200.2 82.985 200.3 84.4184C200.433 85.8184 200.5 87.1517 200.5 88.4184C200.5 90.485 200.167 92.3017 199.5 93.8684C198.8 95.4017 197.533 96.6017 195.7 97.4684C193.867 98.3017 191.217 98.7184 187.75 98.7184L159.8 98.7184L159.8 84.3184L188.95 84.3184C189.883 84.3184 190.5 84.0684 190.8 83.5684C191.1 83.035 191.183 82.3517 191.05 81.5184ZM167.65 79.2836L159.8 79.2836L159.8 64.8836L167.65 64.8836L167.65 79.2836ZM200 64.8836L200 79.2836L169 79.2836L169 64.8836L200 64.8836ZM187.95 42.5332L200.1 41.4832C200.333 42.6832 200.5 43.8499 200.6 44.9832C200.733 46.1165 200.8 47.1999 200.8 48.2332C200.8 50.5999 200.45 52.6999 199.75 54.5332C199.017 56.3665 197.733 57.7999 195.9 58.8332C194.033 59.8665 191.417 60.3832 188.05 60.3832L179.8 60.3832L179.8 63.0832L169 63.0832L169 60.2832L164.95 59.4832L163.6 45.9832L169 45.9832L169 42.3832L179.8 42.3832L179.8 45.9832L184.8 45.9832C186.033 45.9832 186.883 45.7499 187.35 45.2832C187.783 44.8165 188 44.1665 188 43.3332C188 43.2332 188 43.1165 188 42.9832C188 42.8165 187.983 42.6665 187.95 42.5332Z" fill="white"/>
<path d="M207.7 18.6164L207.7 37.0664L195.3 31.9164L169 41.3164L169 25.1164L186.05 23.7664L186.05 22.9164L169 22.8664L169 6.66641L207.7 18.6164Z" fill="#83FFC7"/>
</svg>
