<svg width="112" height="233" viewBox="0 0 112 233" fill="none" xmlns="http://www.w3.org/2000/svg">
<path d="M28.5 81.5H0.750001V53.75H28.5V81.5ZM0.750001 155.25H28.5V183H0.750001V155.25ZM95.5801 232.25C89.5801 222.917 84.1634 213.583 79.3301 204.25C74.4967 195.083 70.3301 185.75 66.8301 176.25C63.4967 166.75 60.9134 157 59.0801 147C57.2467 137 56.3301 126.5 56.3301 115.5C56.3301 95.8333 59.5801 76 66.0801 56C72.7467 36 82.5801 17.4167 95.5801 0.249998H111.83C99.8301 19.25 91.3301 38.0833 86.3301 56.75C81.3301 75.4167 78.8301 95 78.8301 115.5C78.8301 136.5 81.3301 156.417 86.3301 175.25C91.4967 194.083 99.9967 213.083 111.83 232.25H95.5801Z" fill="#222222"/>
</svg>
